<?xml version="1.0" standalone="no"?>
<!DOCTYPE svg PUBLIC "-//W3C//DTD SVG 20010904//EN"
 "http://www.w3.org/TR/2001/REC-SVG-20010904/DTD/svg10.dtd">
<svg version="1.0" xmlns="http://www.w3.org/2000/svg"
 width="1032.000000pt" height="723.000000pt" viewBox="0 0 1032.000000 723.000000"
 preserveAspectRatio="xMidYMid meet">
<metadata>
Created by potrace 1.16, written by Peter Selinger 2001-2019
</metadata>
<g transform="translate(0.000000,723.000000) scale(0.100000,-0.100000)"
fill="#000000" stroke="none">
<path d="M3650 7220 c2010 -3 3648 -6 3639 -8 -9 -1 -48 -17 -85 -34 -68 -32
-71 -33 -193 -30 -115 3 -127 1 -175 -22 -108 -53 -124 -156 -51 -331 87 -208
43 -316 -179 -440 -107 -60 -175 -130 -206 -213 -18 -47 -21 -73 -18 -147 5
-105 27 -162 113 -291 66 -98 136 -236 166 -327 l22 -67 473 0 474 0 0 -225
c0 -124 4 -225 8 -225 8 0 35 77 54 150 4 19 13 137 18 262 13 295 18 320 120
613 23 66 47 150 55 186 59 281 -1 598 -156 825 -92 135 -300 308 -381 316
-13 2 652 5 1477 8 825 3 -824 5 -3665 5 -4891 0 -4971 0 -1510 -5z"/>
<path d="M1617 5583 c-4 -3 -7 -91 -7 -195 l0 -188 155 0 155 0 0 65 0 65 -90
0 -90 0 0 60 0 60 90 0 90 0 0 70 0 70 -148 0 c-82 0 -152 -3 -155 -7z"/>
<path d="M1984 5577 c-2 -7 -3 -65 -2 -128 l3 -114 88 -3 c116 -4 113 -22 -3
-22 l-91 0 3 -57 3 -58 153 -3 152 -3 0 131 0 130 -90 0 c-53 0 -90 4 -90 10
0 6 37 10 90 10 l90 0 0 60 0 60 -150 0 c-115 0 -152 -3 -156 -13z"/>
<path d="M2357 5583 c-4 -3 -7 -62 -7 -130 l0 -123 90 0 c53 0 90 -4 90 -10 0
-6 -37 -10 -90 -10 l-90 0 0 -60 0 -60 155 0 155 0 0 130 0 130 -90 0 c-53 0
-90 4 -90 10 0 6 37 10 90 10 l90 0 0 60 0 60 -148 0 c-82 0 -152 -3 -155 -7z"/>
<path d="M4230 5175 c-19 -7 -51 -14 -70 -14 -48 -1 -110 -20 -140 -41 -26
-18 -60 -104 -60 -149 0 -30 -35 -95 -87 -163 -87 -113 -102 -187 -58 -270 18
-34 25 -63 25 -103 0 -69 -19 -116 -70 -171 -87 -94 -21 -149 110 -93 28 12
57 30 64 41 13 18 16 14 35 -45 l20 -64 -20 -73 c-11 -40 -32 -98 -46 -127
-23 -46 -25 -56 -12 -64 27 -17 114 -40 214 -54 95 -15 205 -41 205 -49 0 -3
-9 -26 -20 -51 l-20 -48 -68 5 c-45 3 -84 14 -119 32 -43 21 -155 55 -185 56
-14 0 -8 -144 7 -203 16 -63 20 -266 6 -350 -14 -83 -30 -92 -177 -93 -68 -1
-128 -4 -131 -8 -3 -3 -14 -47 -23 -97 l-17 -92 141 6 c294 14 368 42 391 147
4 19 24 78 45 130 21 52 45 127 54 165 10 39 22 87 27 108 l10 37 82 0 c45 0
119 -3 165 -7 70 -5 83 -9 78 -22 -2 -9 -30 -74 -61 -144 -30 -71 -58 -149
-62 -173 -3 -25 -23 -79 -44 -119 l-38 -75 22 -15 c12 -8 41 -15 65 -15 40 0
42 -1 32 -20 -16 -30 -84 -28 -114 5 l-23 24 -22 -55 c-13 -30 -21 -57 -19
-59 2 -3 52 -27 111 -55 97 -45 116 -50 202 -56 52 -4 95 -4 95 0 0 23 -26 47
-62 58 -37 11 -44 18 -71 75 -16 35 -29 74 -29 86 0 41 101 301 172 442 80
160 86 195 44 244 -32 38 -134 88 -271 132 l-103 33 0 61 c0 33 -9 166 -20
295 -11 129 -20 237 -20 240 0 3 51 5 113 6 155 0 202 10 232 46 30 36 32 72
5 116 -18 29 -23 31 -41 21 -33 -17 -146 -6 -203 19 -47 21 -48 23 -32 41 10
11 39 29 66 40 46 20 49 23 40 47 -6 14 -13 57 -16 95 -4 38 -10 72 -15 74
-14 9 -237 -128 -248 -152 l-11 -24 -43 26 -42 25 3 58 c1 34 11 75 25 102
l22 45 62 -3 c71 -4 161 18 187 47 17 18 16 21 -3 60 -62 120 -144 163 -241
126z"/>
<path d="M8290 5000 l0 -160 49 0 50 0 3 53 3 52 48 3 47 3 0 -55 0 -56 55 0
55 0 0 160 0 160 -55 0 -55 0 0 -50 0 -50 -50 0 -50 0 0 50 0 50 -50 0 -50 0
0 -160z"/>
<path d="M8642 5108 l3 -53 48 -3 47 -3 0 -105 0 -104 50 0 50 0 0 104 0 105
48 3 47 3 3 53 3 52 -151 0 -151 0 3 -52z"/>
<path d="M8980 5000 l0 -160 55 0 55 0 0 77 0 78 35 -53 c20 -28 37 -52 39
-52 2 0 19 24 37 52 l34 53 3 -78 3 -77 49 0 50 0 0 160 0 160 -54 0 -54 0
-35 -56 -34 -56 -33 56 -34 56 -58 0 -58 0 0 -160z"/>
<path d="M9400 5000 l0 -160 125 0 125 0 0 55 0 55 -75 0 -75 0 0 105 0 105
-50 0 -50 0 0 -160z"/>
<path d="M1140 5001 c0 -60 182 -2047 188 -2052 4 -3 190 -57 415 -118 l407
-113 198 53 c161 44 191 55 167 60 -17 4 -52 12 -80 19 -105 24 -182 93 -170
153 6 33 41 87 57 87 5 0 58 -45 116 -100 103 -96 109 -100 152 -100 57 0 297
27 309 34 5 4 28 41 51 84 l43 77 38 425 c21 234 39 428 39 433 0 4 9 7 20 7
11 0 40 5 64 12 60 16 89 0 121 -67 13 -29 32 -58 41 -66 14 -12 19 -10 38 14
40 50 78 26 127 -80 31 -67 63 -87 53 -34 -4 19 3 57 20 106 14 41 26 92 26
113 -1 45 -25 115 -42 121 -6 2 -34 26 -62 54 -54 54 -114 86 -161 87 -22 0
-38 -10 -65 -41 -29 -33 -47 -44 -101 -58 l-67 -18 4 36 c3 20 20 216 39 436
19 220 36 412 38 428 l4 27 -1014 0 c-995 0 -1013 0 -1013 -19z m1645 -443
c-3 -24 -28 -297 -55 -608 -27 -311 -52 -584 -55 -607 -6 -41 -8 -42 -58 -56
-29 -8 -145 -41 -259 -73 l-207 -57 -257 71 c-141 39 -259 74 -261 76 -3 2
-11 75 -18 163 -8 87 -16 175 -19 196 l-4 37 128 0 128 0 7 -67 c3 -38 8 -83
11 -100 5 -36 -10 -29 196 -86 l87 -24 136 37 c75 21 139 40 142 43 5 6 32
252 33 305 l0 22 -439 0 -438 0 -7 73 c-4 39 -9 96 -12 124 l-6 53 463 2 464
3 7 80 c4 44 9 101 12 128 l5 47 -483 0 c-401 0 -485 2 -489 14 -3 7 -9 66
-13 130 l-7 116 637 0 637 0 -6 -42z"/>
<path d="M8140 4663 c0 -16 22 -282 49 -593 74 -843 71 -778 43 -796 -26 -17
-78 -120 -88 -172 -4 -22 -15 -37 -30 -44 -18 -9 -24 -19 -24 -45 0 -28 3 -33
23 -32 52 2 68 15 111 87 48 80 56 78 56 -13 0 -30 5 -57 13 -62 6 -6 161 -51
344 -102 l331 -92 330 92 c182 51 336 95 342 99 7 4 39 317 85 841 41 459 75
840 75 847 0 9 -173 12 -830 12 l-830 0 0 -27z m1352 -365 c-2 -29 -7 -78 -11
-108 l-6 -55 -399 3 -399 2 7 -102 c4 -56 9 -106 12 -110 3 -5 176 -5 385 -2
208 4 379 5 379 3 -6 -108 -61 -644 -67 -649 -4 -4 -101 -34 -215 -65 l-207
-58 -208 58 c-114 32 -212 62 -218 66 -7 8 -33 231 -35 307 0 21 3 22 104 22
l104 0 6 -31 c3 -17 6 -50 6 -73 0 -22 4 -46 8 -53 4 -6 56 -25 117 -42 l109
-30 117 32 117 32 6 75 c4 41 9 101 13 133 l6 57 -361 0 -361 0 -5 33 c-3 17
-14 142 -26 277 -11 135 -23 264 -26 288 l-5 42 529 0 529 0 -5 -52z"/>
<path d="M7745 4388 c-11 -7 -27 -20 -35 -30 -9 -11 -37 -22 -68 -27 -64 -10
-98 -39 -113 -95 -9 -34 -8 -57 11 -136 24 -104 48 -170 62 -170 5 0 8 -19 6
-42 l-3 -43 75 -42 c74 -43 148 -66 163 -53 5 4 1 22 -8 40 -18 35 -14 60 9
60 23 0 87 61 102 97 8 18 14 55 14 83 0 43 3 50 19 50 30 0 51 28 51 67 0 28
-8 42 -37 69 -20 19 -40 34 -43 34 -3 0 -14 15 -24 33 -48 83 -132 132 -181
105z"/>
<path d="M6935 4109 c-222 -30 -342 -224 -274 -445 28 -91 100 -164 214 -218
298 -141 300 -143 300 -222 0 -77 -61 -118 -171 -118 -86 1 -140 27 -201 100
l-39 45 -90 -51 c-49 -28 -93 -55 -98 -60 -20 -20 90 -145 167 -189 161 -91
422 -87 547 7 55 42 81 73 106 127 42 94 41 121 -10 222 -24 49 -52 113 -62
142 -15 47 -24 58 -75 91 -32 20 -108 59 -170 86 -68 30 -127 63 -151 85 -33
31 -38 42 -38 80 0 55 19 84 66 99 56 19 116 5 158 -36 20 -19 36 -39 36 -44
0 -6 5 -10 11 -10 9 0 161 92 183 111 13 11 -29 73 -80 118 -77 68 -198 97
-329 80z"/>
<path d="M6180 3645 c0 -496 -1 -504 -56 -525 -39 -15 -113 -12 -143 6 -15 9
-41 36 -57 60 -16 24 -34 42 -40 40 -7 -3 -53 -30 -103 -61 l-91 -56 17 -32
c30 -53 111 -127 166 -152 79 -36 180 -50 263 -36 135 24 211 79 263 191 l26
55 3 483 3 482 -126 0 -125 0 0 -455z"/>
<path d="M4100 2575 c-12 -13 -31 -48 -41 -77 l-18 -53 -1 42 c0 53 -20 73
-70 73 -31 0 -43 -5 -55 -24 -23 -34 -6 -67 59 -115 30 -22 57 -45 61 -51 3
-5 39 -10 79 -10 64 0 78 4 118 30 57 38 66 49 74 87 4 21 1 35 -11 46 -22 22
-25 22 -76 -13 -57 -38 -73 -39 -53 -2 38 74 -11 125 -66 67z"/>
<path d="M3040 2443 c-8 -3 -43 -23 -77 -45 -35 -22 -89 -51 -120 -63 l-58
-24 -22 -383 c-29 -520 -29 -523 5 -589 17 -32 43 -64 67 -80 36 -25 41 -34
77 -154 52 -173 79 -313 77 -396 l-2 -69 -67 -60 c-72 -64 -116 -80 -215 -80
-45 0 -71 -19 -62 -44 11 -27 53 -46 118 -53 44 -4 68 -12 77 -24 26 -37 75
-42 302 -36 119 4 251 10 293 13 l77 7 0 67 c0 51 -6 78 -25 116 -40 78 -49
114 -51 199 -2 102 -61 306 -188 650 -32 87 -34 172 -6 287 23 96 25 173 6
278 -8 41 -13 75 -12 75 0 1 20 13 43 29 49 33 93 111 93 166 0 32 -4 37 -32
48 -61 22 -183 100 -197 125 -20 37 -63 54 -101 40z"/>
<path d="M9650 1635 c-12 -13 -31 -48 -41 -77 l-18 -53 -1 42 c0 53 -20 73
-70 73 -31 0 -43 -5 -55 -24 -23 -34 -6 -67 59 -116 31 -24 56 -46 56 -51 0
-5 37 -9 81 -9 78 0 83 2 131 36 65 48 85 96 52 128 -21 21 -24 21 -75 -14
-57 -38 -73 -39 -53 -2 38 72 -12 124 -66 67z"/>
<path d="M150 1333 c-28 -37 -53 -77 -56 -90 -4 -13 -10 -23 -15 -23 -4 0 -15
-23 -24 -52 -20 -69 -6 -92 66 -107 29 -7 67 -20 85 -31 34 -21 152 -143 179
-184 l16 -24 42 19 c23 10 50 19 60 19 10 0 41 25 70 56 75 82 142 132 185
139 62 11 92 26 98 52 7 26 -22 113 -37 113 -5 0 -9 7 -9 16 0 17 -77 131
-102 151 -11 9 -13 -1 -13 -55 0 -80 -11 -104 -106 -238 -38 -55 -84 -127
-102 -161 -17 -35 -34 -63 -37 -63 -3 0 -15 22 -28 49 -12 27 -61 104 -108
171 -97 139 -119 189 -112 261 3 27 4 49 2 49 -2 0 -26 -30 -54 -67z"/>
<path d="M8530 1354 c-60 -26 -97 -29 -149 -14 -19 5 -36 9 -37 7 -1 -1 -5
-28 -9 -59 l-7 -58 38 0 c53 0 137 -14 276 -46 115 -27 118 -27 138 -9 23 21
23 54 0 66 -8 4 -34 12 -57 18 -40 11 -91 51 -123 97 l-15 21 -55 -23z"/>
<path d="M7222 1276 c-13 -36 -21 -70 -17 -75 11 -19 129 -79 187 -96 47 -13
67 -14 122 -4 36 6 69 15 72 20 3 5 -32 50 -78 99 -88 96 -101 103 -208 115
l-55 7 -23 -66z"/>
<path d="M4320 764 c-39 -34 -58 -71 -75 -148 l-13 -61 -1 58 c-1 57 -13 95
-35 109 -6 4 -35 8 -63 8 -69 0 -98 -25 -90 -77 7 -43 18 -56 91 -109 32 -23
65 -52 73 -63 13 -19 24 -21 115 -21 96 0 104 2 149 31 73 46 119 102 119 143
0 40 -22 66 -54 66 -12 0 -47 -18 -76 -40 -29 -22 -62 -40 -72 -40 -17 0 -17
2 2 33 11 18 20 50 20 73 0 68 -36 83 -90 38z"/>
</g>
</svg>
