<?xml version="1.0" standalone="no"?>
<!DOCTYPE svg PUBLIC "-//W3C//DTD SVG 20010904//EN"
 "http://www.w3.org/TR/2001/REC-SVG-20010904/DTD/svg10.dtd">
<svg version="1.0" xmlns="http://www.w3.org/2000/svg"
 width="1068.000000pt" height="815.000000pt" viewBox="0 0 1068.000000 815.000000"
 preserveAspectRatio="xMidYMid meet">
<metadata>
Created by potrace 1.16, written by Peter Selinger 2001-2019
</metadata>
<g transform="translate(0.000000,815.000000) scale(0.100000,-0.100000)"
fill="#000000" stroke="none">
<path d="M3157 7234 c-337 -104 -369 -557 -50 -706 156 -73 336 -31 446 105
43 53 57 79 73 142 34 125 2 254 -88 351 -96 105 -250 148 -381 108z m238 -58
c174 -78 249 -274 170 -443 -115 -250 -468 -265 -597 -26 -93 171 -26 378 151
468 78 39 190 40 276 1z"/>
<path d="M7257 7240 c-105 -27 -212 -114 -256 -210 -32 -71 -40 -191 -18 -266
37 -123 135 -220 263 -259 189 -57 403 63 461 259 22 75 14 195 -18 266 -56
121 -186 208 -321 215 -40 3 -90 0 -111 -5z m229 -65 c64 -28 125 -88 161
-157 24 -47 28 -64 28 -143 0 -117 -24 -174 -106 -249 -222 -206 -577 -35
-557 268 15 232 260 377 474 281z"/>
<path d="M7288 6927 c-43 -57 -78 -109 -78 -115 0 -8 27 -12 85 -12 l85 0 0
-45 c0 -38 3 -45 20 -45 17 0 20 7 20 45 0 41 2 45 25 45 16 0 25 6 25 15 0 9
-9 15 -25 15 l-25 0 0 100 0 100 -27 0 c-24 0 -40 -17 -105 -103z"/>
<path d="M5178 6644 c-228 -55 -387 -257 -388 -489 0 -279 227 -505 508 -505
298 0 537 277 494 572 -43 296 -328 492 -614 422z m308 -95 c86 -42 183 -145
215 -226 27 -71 36 -194 19 -272 -47 -214 -273 -368 -487 -333 -247 41 -415
267 -375 504 50 293 365 456 628 327z"/>
<path d="M5226 6306 c-49 -18 -61 -30 -43 -44 9 -8 25 -7 60 6 43 15 50 15 75
2 55 -32 32 -95 -40 -106 -49 -8 -50 -31 0 -40 56 -10 82 -30 82 -64 0 -56
-75 -78 -147 -43 -29 13 -36 14 -43 3 -12 -19 -3 -30 36 -46 69 -29 169 -11
194 35 14 27 13 74 -2 93 -7 9 -26 23 -42 31 l-30 15 32 16 c51 26 56 100 9
130 -34 23 -97 28 -141 12z"/>
<path d="M5584 4239 c-35 -38 -25 -113 28 -221 48 -98 76 -181 103 -311 19
-89 15 -122 -17 -132 -35 -10 -109 -5 -140 11 -40 21 -61 18 -55 -6 7 -26 -33
-75 -82 -100 -21 -10 -44 -26 -51 -35 -20 -24 -20 -142 -2 -253 15 -90 15 -94
-5 -120 -40 -54 -79 -72 -160 -72 -65 0 -77 -3 -99 -25 -33 -33 -57 -45 -92
-45 -45 0 -131 29 -141 48 -4 9 -11 67 -13 128 -6 132 -19 165 -67 175 -59 12
-61 22 -35 134 25 107 30 155 15 155 -21 0 -70 -53 -85 -92 -27 -66 -36 -131
-46 -323 -6 -99 -13 -203 -16 -232 -6 -49 -5 -53 20 -64 25 -12 26 -15 26 -99
0 -114 25 -253 55 -311 22 -43 24 -55 20 -167 -5 -118 -1 -148 30 -282 9 -36
22 -105 30 -155 7 -49 20 -128 28 -175 12 -67 13 -109 5 -200 -19 -224 -21
-584 -4 -709 22 -168 29 -287 17 -309 -7 -14 -6 -25 5 -40 10 -15 14 -40 12
-79 l-3 -58 37 -3 c46 -4 78 13 151 81 41 39 57 61 57 80 0 26 -31 53 -49 43
-5 -3 -12 160 -16 362 l-7 367 25 80 c22 69 27 113 37 315 16 332 36 540 54
558 12 12 15 12 23 -4 11 -24 10 -507 -1 -679 -7 -117 -6 -138 12 -203 20 -70
21 -84 11 -340 -7 -203 -7 -278 2 -314 10 -38 10 -55 -1 -87 -8 -26 -10 -59
-6 -98 4 -32 8 -89 9 -128 l2 -70 38 -3 c43 -4 64 8 144 76 61 53 75 88 43
114 -16 13 -27 15 -39 8 -16 -8 -17 -1 -13 103 2 67 12 142 24 187 16 63 22
138 33 470 13 357 17 411 44 565 16 94 39 199 50 235 30 96 41 181 41 312 0
75 4 119 11 124 6 3 20 26 31 50 l19 44 -34 52 c-19 29 -44 62 -57 73 -30 27
-60 88 -60 124 0 16 -14 60 -30 97 -28 62 -30 73 -25 143 4 42 13 106 21 143
8 37 14 89 14 116 0 74 9 78 184 86 106 4 154 10 165 20 9 8 25 16 35 17 26 5
55 48 63 91 7 44 -32 175 -108 368 -27 69 -60 167 -74 218 -46 172 -91 226
-141 171z"/>
<path d="M7683 3738 c-17 -5 -41 -21 -53 -36 -21 -26 -22 -33 -16 -207 4 -131
2 -200 -8 -255 l-13 -75 -2 78 c-1 87 -18 128 -58 146 -81 37 -167 -32 -148
-118 6 -28 66 -91 150 -157 l39 -30 -32 -67 c-17 -37 -45 -87 -62 -112 -35
-51 -138 -165 -150 -165 -4 0 -13 28 -20 62 -15 76 -46 162 -64 178 -8 6 -28
15 -45 20 l-31 9 0 -113 0 -113 75 -28 74 -27 -40 -50 c-21 -28 -55 -77 -74
-110 l-35 -59 0 -160 0 -161 51 56 50 55 62 -48 c90 -71 128 -91 168 -91 102
0 141 139 55 196 -20 13 -40 15 -80 11 l-53 -5 19 36 c10 20 18 42 18 48 0 13
147 89 192 99 23 6 35 -2 94 -65 75 -79 107 -100 155 -100 40 0 99 56 99 95 0
40 -27 91 -56 104 -29 13 -110 14 -171 2 -24 -5 -43 -7 -43 -5 0 1 28 18 63
36 40 21 95 66 155 125 74 73 97 91 110 84 37 -19 191 -52 216 -45 14 3 37 20
51 36 50 59 23 147 -51 167 -45 12 -65 5 -147 -57 l-66 -50 47 89 c44 83 50
90 87 99 90 24 168 56 190 78 57 56 24 160 -55 177 -40 9 -97 -20 -117 -59 -9
-17 -28 -67 -43 -111 -14 -44 -49 -125 -78 -180 -67 -126 -105 -177 -57 -75
40 85 43 112 15 157 -35 58 -116 64 -165 13 -41 -42 -37 -88 15 -191 23 -46
46 -89 51 -95 16 -20 -108 -122 -211 -174 -56 -29 -150 -61 -150 -52 0 4 4 23
9 42 5 19 12 52 16 73 3 20 11 37 16 37 26 0 77 33 88 56 20 46 14 93 -18 125
-37 37 -83 38 -149 5 -92 -46 -95 -44 -47 30 40 61 105 215 105 250 0 7 4 14
9 14 28 0 171 22 198 31 91 29 99 149 13 194 -62 32 -113 -3 -171 -116 -16
-33 -32 -59 -34 -59 -3 0 -3 17 0 38 3 20 7 65 9 100 l4 62 76 65 c41 36 83
79 92 96 20 40 12 88 -21 122 -30 29 -58 36 -102 25z m-273 -986 c0 -36 18
-62 102 -147 l68 -71 -64 -31 c-62 -31 -65 -31 -71 -13 -10 30 -54 60 -90 60
-21 0 -51 -13 -85 -36 -41 -28 -54 -33 -66 -23 -8 6 -14 15 -14 19 0 32 187
270 211 270 5 0 9 -12 9 -28z"/>
<path d="M1074 1177 c-53 -79 -54 -101 -7 -112 26 -6 73 -37 73 -49 0 -3 -28
-6 -62 -8 -38 -2 -63 -8 -66 -15 -3 -10 41 -13 198 -13 157 0 201 3 198 13 -3
7 -30 14 -67 17 -61 5 -63 6 -44 22 10 10 35 24 56 33 20 8 37 22 37 30 0 8
-15 38 -32 67 l-33 53 -5 -40 c-7 -47 -85 -165 -111 -165 -22 0 -101 121 -108
166 l-6 34 -21 -33z"/>
<path d="M1030 872 c0 -30 18 -182 26 -219 3 -15 16 -25 42 -32 49 -14 188
-13 232 2 l35 12 15 133 16 132 -183 0 -183 0 0 -28z"/>
</g>
</svg>
