<?xml version="1.0" standalone="no"?>
<!DOCTYPE svg PUBLIC "-//W3C//DTD SVG 20010904//EN"
 "http://www.w3.org/TR/2001/REC-SVG-20010904/DTD/svg10.dtd">
<svg version="1.0" xmlns="http://www.w3.org/2000/svg"
 width="1079.000000pt" height="820.000000pt" viewBox="0 0 1079.000000 820.000000"
 preserveAspectRatio="xMidYMid meet">
<metadata>
Created by potrace 1.16, written by Peter Selinger 2001-2019
</metadata>
<g transform="translate(0.000000,820.000000) scale(0.100000,-0.100000)"
fill="#000000" stroke="none">
<path d="M2698 8193 c1487 -2 3917 -2 5400 0 1483 1 267 2 -2703 2 -2970 0
-4184 -1 -2697 -2z"/>
<path d="M5250 6879 c-407 -53 -730 -340 -842 -747 -31 -112 -31 -372 0 -485
50 -182 135 -330 268 -464 l81 -83 -125 -260 -125 -260 -629 0 -628 0 0 -730
0 -730 730 0 730 0 2 354 3 355 120 -65 c66 -36 170 -91 231 -124 60 -32 256
-138 434 -234 302 -164 366 -196 330 -163 -12 11 -312 175 -735 402 -22 11
-118 63 -212 115 l-173 94 0 363 0 363 -90 0 c-49 0 -90 2 -90 4 0 5 240 499
244 503 2 2 27 -13 57 -33 262 -177 617 -210 925 -84 582 238 799 949 450
1474 -208 313 -583 483 -956 435z m380 -43 c552 -149 864 -743 670 -1278 -162
-446 -625 -714 -1094 -632 -189 33 -359 119 -500 253 -90 87 -149 164 -200
264 -83 163 -111 296 -103 491 9 252 94 450 271 635 85 88 166 147 272 199 94
46 127 58 242 83 123 27 310 20 442 -15z m-940 -2986 l0 -710 -710 0 -710 0 0
710 0 710 710 0 710 0 0 -710z"/>
<path d="M3287 5324 c-38 -36 -67 -69 -65 -74 6 -17 131 -141 139 -138 4 2 40
31 79 66 l70 63 -67 75 c-37 41 -72 74 -78 74 -5 -1 -41 -30 -78 -66z m145
-17 l56 -64 -65 -58 -65 -58 -61 61 -62 62 60 60 c33 33 64 60 70 60 5 0 35
-28 67 -63z"/>
<path d="M8720 5211 c-101 -32 -172 -119 -187 -226 -5 -38 -3 -45 12 -45 12 0
15 -5 11 -17 -35 -91 -26 -172 30 -253 29 -42 34 -58 34 -105 0 -52 1 -55 26
-55 36 0 26 -24 -12 -28 -16 -2 -51 -9 -79 -16 -27 -8 -66 -17 -86 -20 -43 -8
-84 -37 -103 -74 -8 -15 -22 -67 -31 -117 -10 -49 -31 -123 -46 -163 -35 -87
-36 -127 -5 -213 l23 -66 -85 -548 -85 -549 -38 -51 c-90 -119 -125 -231 -80
-255 30 -16 73 -12 109 10 43 26 87 120 108 226 9 44 48 176 87 294 l71 215
17 -134 16 -135 -38 -116 c-115 -353 -189 -721 -193 -960 -2 -89 -18 -187
-111 -654 -85 -424 -114 -550 -125 -553 -12 -3 -25 -49 -49 -176 l-34 -172
-48 -43 c-40 -35 -49 -50 -49 -76 0 -32 29 -69 75 -94 15 -8 -430 -11 -1662
-12 -1115 0 -1683 -3 -1683 -10 0 -7 1047 -10 3120 -10 2073 0 3120 3 3120 10
0 6 -78 10 -215 10 l-215 0 0 140 0 139 41 11 c94 26 199 179 253 370 75 264
75 648 0 908 -57 197 -153 339 -248 364 l-46 12 0 123 c0 119 1 123 22 123 35
0 105 47 144 98 179 235 238 751 133 1167 -43 171 -144 334 -229 371 l-40 18
0 110 c-1 282 -100 452 -318 545 -30 12 -63 21 -75 19 -16 -3 -6 -9 33 -22
202 -68 316 -218 342 -449 6 -56 8 -123 4 -148 -7 -44 -9 -47 -44 -54 -56 -10
-117 -50 -158 -103 -220 -288 -247 -990 -53 -1362 58 -111 140 -190 195 -190
24 0 24 0 24 -123 l0 -123 -43 -11 c-87 -24 -185 -161 -240 -338 -38 -121 -58
-254 -64 -424 -12 -316 55 -606 178 -774 39 -54 59 -71 108 -94 l61 -28 0
-137 0 -138 -385 0 c-212 0 -385 1 -385 3 0 21 32 172 43 202 12 34 13 103 6
435 -8 418 -16 535 -51 720 -16 85 -31 134 -59 187 -31 61 -44 107 -78 280
-39 196 -81 454 -75 461 1 2 11 -1 22 -7 32 -17 60 -13 73 11 18 34 4 188 -27
303 -20 74 -27 119 -25 170 3 90 -22 258 -60 399 -17 61 -37 170 -44 241 -21
191 -33 255 -72 405 -19 74 -39 168 -44 209 -14 114 -47 240 -77 296 -21 39
-38 55 -74 73 -33 15 -48 29 -48 41 0 11 -3 26 -6 35 -5 13 11 16 117 18 l122
3 11 32 c17 48 25 50 19 4 -5 -39 -4 -41 21 -41 l26 0 0 134 c0 159 -18 268
-60 352 -62 128 -156 199 -275 208 -33 3 -85 7 -115 10 -30 3 -66 2 -80 -3z
m161 -3018 c100 -303 233 -649 263 -682 9 -10 43 -188 90 -477 l77 -460 -20
-163 -20 -162 -45 -42 c-65 -60 -68 -87 -18 -137 l40 -40 -558 0 -557 0 18 93
c9 50 25 117 34 147 13 44 14 65 6 105 -6 28 -11 77 -13 110 -2 53 2 69 34
130 147 281 244 584 255 795 l5 115 151 335 c82 184 163 363 178 398 15 34 30
62 33 62 2 0 23 -57 47 -127z"/>
<path d="M5903 4590 c-37 -22 -60 -82 -49 -126 4 -15 21 -40 38 -56 24 -22 39
-28 77 -28 53 0 84 18 106 60 56 108 -66 215 -172 150z m138 -29 c38 -38 39
-87 4 -129 -63 -75 -187 -21 -172 76 13 81 109 111 168 53z"/>
<path d="M5741 3054 c-205 -355 -371 -648 -368 -650 2 -2 340 -3 750 -2 l746
3 -369 639 c-203 352 -373 643 -378 648 -4 4 -175 -283 -381 -638z m740 -12
l356 -617 -715 -3 c-393 -1 -717 -1 -719 1 -5 5 708 1237 716 1237 3 0 166
-278 362 -618z"/>
<path d="M4733 2682 l-92 -87 87 -93 88 -93 89 82 c50 45 90 86 90 92 0 10
-155 185 -165 186 -3 0 -46 -39 -97 -87z m175 -21 l71 -78 -81 -74 -81 -73
-75 79 -76 79 78 73 c43 40 81 73 85 73 5 0 40 -35 79 -79z"/>
</g>
</svg>
