<svg xmlns="http://www.w3.org/2000/svg" version="1.0" viewBox="0 0 250 250">
  <path
    d="M0 125v124h249V0H0v125zm210-77l16 2c9 3 11 14 2 18h-12c-18-1-57-1-73 1l-9 1-1 6c-1 9-3 14-12 34a651 651 0 00-36 91c-5 2-12 3-16 2s-9-6-9-9 7-21 17-45c20-48 24-60 24-69 0-5 2-5-19 1-8 1-22 6-31 9-19 6-26 7-31 5-8-4-9-12-2-17a499 499 0 01192-30zm-3 40c10 4 12 9 8 15-5 5-13 5-16-2l-4-4c-8-1-18 3-27 10-6 4-13 14-17 23-2 6-2 6 7 5h22c3 2 3 6 0 9-2 2-5 2-18 4-9 0-16 2-17 2l-3 12c-5 23-5 25-8 27-4 3-10 3-13-1-4-3-4-4 0-17 4-12 5-20 3-20-9-3-11-4-11-6 0-4 4-7 9-7 7 0 8-1 12-11 5-12 9-19 15-25 10-8 21-14 32-16 7-2 21 0 26 2z"
  />
</svg>
