<?xml version="1.0" standalone="no"?>
<!DOCTYPE svg PUBLIC "-//W3C//DTD SVG 20010904//EN"
 "http://www.w3.org/TR/2001/REC-SVG-20010904/DTD/svg10.dtd">
<svg version="1.0" xmlns="http://www.w3.org/2000/svg"
 width="250.000000pt" height="250.000000pt" viewBox="0 0 250.000000 250.000000"
 preserveAspectRatio="xMidYMid meet">
<metadata>
Created by potrace 1.16, written by Peter Selinger 2001-2019
</metadata>
<g transform="translate(0.000000,250.000000) scale(0.100000,-0.100000)"
fill="#000000" stroke="none">
<path d="M0 1255 l0 -1245 1245 0 1245 0 0 1245 0 1245 -1245 0 -1245 0 0
-1245z m2098 765 c68 -5 141 -14 162 -20 93 -25 108 -135 24 -175 -28 -13 -51
-15 -127 -8 -174 15 -567 9 -732 -11 l-90 -11 -7 -55 c-13 -94 -29 -139 -118
-340 -144 -324 -279 -677 -315 -827 -15 -64 -20 -73 -48 -86 -49 -22 -114 -29
-158 -15 -43 12 -89 58 -89 88 0 29 68 214 165 445 201 484 245 608 245 692 0
50 24 51 -195 -3 -77 -19 -216 -60 -308 -90 -191 -63 -255 -74 -309 -51 -78
33 -89 117 -20 163 69 47 468 164 744 218 371 74 869 110 1176 86z m-24 -399
c93 -41 118 -93 71 -149 -47 -56 -122 -47 -156 19 -10 21 -27 39 -37 40 -81 5
-183 -31 -271 -96 -61 -45 -131 -140 -169 -230 -25 -60 -19 -65 66 -54 87 11
201 10 223 -1 26 -15 25 -61 -3 -88 -19 -17 -48 -23 -178 -37 -94 -9 -160 -21
-168 -29 -7 -7 -22 -60 -33 -117 -45 -233 -49 -248 -76 -269 -40 -31 -98 -27
-135 10 -35 35 -35 39 6 175 34 114 44 193 25 198 -88 24 -104 33 -107 58 -4
35 38 69 87 70 74 2 80 7 121 109 49 124 90 189 155 247 92 82 201 138 320
164 65 14 208 3 259 -20z"/>
</g>
</svg>
