<?xml version="1.0" encoding="UTF-8" standalone="no"?>
<svg
   xmlns:dc="http://purl.org/dc/elements/1.1/"
   xmlns:cc="http://creativecommons.org/ns#"
   xmlns:rdf="http://www.w3.org/1999/02/22-rdf-syntax-ns#"
   xmlns:svg="http://www.w3.org/2000/svg"
   xmlns="http://www.w3.org/2000/svg"
   xmlns:sodipodi="http://sodipodi.sourceforge.net/DTD/sodipodi-0.dtd"
   xmlns:inkscape="http://www.inkscape.org/namespaces/inkscape"
   width="63.24575mm"
   height="63.246269mm"
   viewBox="0 0 63.24575 63.246269"
   version="1.1"
   id="svg8"
   inkscape:version="1.0.1 (c497b03c, 2020-09-10)"
   sodipodi:docname="drawing.svg">
  <defs
     id="defs2" />
  <sodipodi:namedview
     id="base"
     pagecolor="#ffffff"
     bordercolor="#666666"
     borderopacity="1.0"
     inkscape:pageopacity="0.0"
     inkscape:pageshadow="2"
     inkscape:zoom="0.35"
     inkscape:cx="131.42773"
     inkscape:cy="168.57227"
     inkscape:document-units="mm"
     inkscape:current-layer="layer1"
     inkscape:document-rotation="0"
     showgrid="false"
     inkscape:window-width="1252"
     inkscape:window-height="755"
     inkscape:window-x="13"
     inkscape:window-y="23"
     inkscape:window-maximized="0" />
  <metadata
     id="metadata5">
    <rdf:RDF>
      <cc:Work
         rdf:about="">
        <dc:format>image/svg+xml</dc:format>
        <dc:type
           rdf:resource="http://purl.org/dc/dcmitype/StillImage" />
        <dc:title />
      </cc:Work>
    </rdf:RDF>
  </metadata>
  <g
     inkscape:label="Layer 1"
     inkscape:groupmode="layer"
     id="layer1"
     transform="translate(-71.059746,-103.56525)">
    <path
       id="path24"
       style="fill:#020202;stroke:none;stroke-width:0.96"
       d="M 268.57227,391.42773 V 630.46875 H 507.61133 V 391.42773 Z m 186.27734,46.05274 c 8.64401,-0.0261 17.20486,0.0547 25.88086,1.13867 5.27233,0.65855 11.43925,2.25333 12.2207,8.49024 1.58782,12.66237 -14.37649,10.07483 -21.82031,9.61914 -18.71713,-1.14577 -37.90329,-1.64749 -56.63867,0.14257 -4.60702,0.44017 -15.33939,0.10331 -17.74805,4.7793 -2.9616,5.74923 -2.48444,13.78344 -4.92383,20.01758 -7.72989,19.75585 -17.41758,38.66455 -24.92187,58.56055 -4.94113,13.0992 -7.74948,28.62497 -13.73047,41.07617 -4.03064,8.39134 -23.17285,6.7108 -26.26953,-1.73047 -3.10042,-8.4528 7.09945,-25.75041 10.38476,-33.58594 10.34843,-24.67967 28.22979,-54.40186 28.24805,-81.59961 -21.21158,5.48784 -42.9224,14.08821 -64.32031,18.14844 -6.72299,1.27563 -20.33048,1.87647 -19.84961,-8.54883 0.57252,-12.41174 27.79304,-16.41772 37.13086,-19.06445 41.66014,-11.80789 84.47874,-17.43261 127.67969,-17.41602 2.90709,9.5e-4 5.79639,-0.0186 8.67773,-0.0273 z m -0.67773,35.63672 c 5.61257,0.0153 11.1944,0.97608 15.99609,3.66015 5.02174,2.80676 8.84206,8.13802 4.38672,13.39258 -9.25727,10.91713 -14.47747,-6.44801 -22.625,-5.88672 -20.31742,1.40009 -34.37116,20.12555 -40.31836,37.70508 8.62851,-0.68065 18.23093,-3.43977 26.86133,-1.58984 5.69185,1.22014 5.53674,7.46352 0.875,10.21679 -8.58146,5.06782 -22.45359,-1.13567 -30.34766,5.37891 -8.70814,7.1856 -1.85529,45.74669 -21.375,38.08203 -12.77758,-5.01793 1.50501,-24.67073 0.71875,-33.83008 -0.54814,-6.36865 -12.59563,-4.50369 -10.60937,-11.50976 2.015,-7.10786 11.86497,-2.91366 15.8125,-7.92774 4.31422,-5.47967 5.51616,-13.83959 9.05664,-19.93945 7.98912,-13.76621 23.20597,-23.50355 38.76757,-26.43945 4.0509,-0.76427 8.43543,-1.32441 12.80079,-1.3125 z"
       transform="scale(0.26458333)" />
    <path
       style="fill:#f2f2f2;stroke-width:2.85714"
       d="m 63.42773,190.85798 c -5.57358,-5.57358 -4.28718,-10.30201 14.192983,-52.1692 17.815206,-40.360719 25.077547,-69.96743 16.3578,-66.686528 -5.811052,2.186472 -54.146652,15.801787 -62.803105,17.690564 -4.309389,0.940277 -9.674296,-0.0803 -12.857143,-2.445852 -5.365486,-3.98772 -5.36103,-4.16064 0.252322,-9.789634 6.462658,-6.480667 60.858852,-21.042755 96.635313,-25.869677 12.29228,-1.65846 40.09914,-3.015383 61.79302,-3.015383 32.05694,0 40.12831,0.825252 43.10074,4.406805 7.11717,8.575673 -1.01196,10.799149 -37.83593,10.34887 -19.31694,-0.236206 -39.62171,0.573796 -45.12171,1.800004 -8.86446,1.976302 -10.3679,3.677317 -13.23981,14.979752 -1.7819,7.012655 -8.4166,24.438809 -14.74379,38.724789 -6.32719,14.28598 -14.229287,35.12558 -17.560221,46.31023 -3.330932,11.18465 -8.038066,22.31756 -10.460295,24.73978 -5.269797,5.2698 -12.990594,5.69506 -17.710174,0.97548 z"
       id="path16"
       transform="matrix(0.26458333,0,0,0.26458333,71.059746,103.56525)" />
    <path
       style="fill:#f2f2f2;stroke-width:2.85714"
       d="m 117.80019,179.28656 c -1.96628,-2.42264 -1.88047,-8.47859 0.26675,-18.82708 2.79498,-13.47034 2.59172,-15.5767 -1.7369,-17.99911 -6.79342,-3.80179 -6.12582,-7.60261 1.52626,-8.68938 4.33786,-0.61608 8.93128,-5.55904 14.12394,-15.19872 12.50749,-23.218949 30.9124,-35.642727 52.88448,-35.698352 8.81988,-0.02233 20.84872,5.905379 20.84872,10.274061 0,6.414696 -5.45581,7.328611 -13.91596,2.331076 -9.99726,-5.905527 -19.40775,-4.03718 -31.68074,6.289855 -8.858,7.45351 -17.26044,20.61555 -17.26044,27.03767 0,2.26998 3.6232,2.88926 11.06457,1.89116 6.08551,-0.81624 12.6788,-0.48642 14.65176,0.73293 6.45583,3.98993 -0.0903,8.56926 -12.31352,8.61392 -16.24397,0.0593 -18.40071,2.00779 -22.20783,20.06298 -3.22519,15.29547 -6.89361,22.75041 -11.19498,22.75041 -1.1866,0 -3.46185,-1.60714 -5.05611,-3.57142 z"
       id="path25"
       transform="matrix(0.26458333,0,0,0.26458333,71.059746,103.56525)" />
  </g>
</svg>
